#N canvas 948 494 779 512 12;
#X obj 29 38 / 50000;
#X obj 29 67 - 0.5;
#X obj 29 91 * 2;
#X obj 29 115 sig~;
#X obj 29 139 lop~ 30;
#X text 126 34 EEG Frequencies______________ 0-4 Hz Delta: Slow wave sleep 4-8 Hz Theta: Drowsy (more prominent in childhood ____ 8-13 Hz Alpha: Awake _____ 13-30 Hz Beta: muscle artifact > 30 Hz Gamma: not seen in scalp eeg, f 30;
#X obj 240 318 fluid.stats -history 32;
#X obj 30 316 fluid.stats 4 -history 32;
#X listbox 267 445 51 0 0 0 - - - 0;
#X obj 240 289 fluid.sinefeature~ 1 -order 1 -magunit 1 -maxfftsize 4096;
#X obj 29 176 fluid.mfcc~ -maxfreq 30 -numbands 13 -numcoeffs 4 -minfreq 1 -startcoeff 0 -fftsettings 4096 -1 -1, f 100;
#X obj 29 7 inlet;
#X obj 30 470 outlet;
#X obj 30 385 list append;
#X obj 343 355 pack 0 0;
#X obj 164 470 outlet~;
#X obj 401 39 inlet~;
#X connect 0 0 1 0;
#X connect 1 0 2 0;
#X connect 2 0 3 0;
#X connect 3 0 4 0;
#X connect 4 0 9 0;
#X connect 4 0 10 0;
#X connect 4 0 15 0;
#X connect 6 0 14 0;
#X connect 7 0 13 0;
#X connect 9 0 6 0;
#X connect 9 1 14 1;
#X connect 10 0 7 0;
#X connect 11 0 0 0;
#X connect 13 0 12 0;
#X connect 13 0 8 0;
#X connect 14 0 13 1;
#X connect 16 0 10 0;
