#N canvas 963 410 693 697 12;
#X obj 119 71 netreceive -u -b;
#X msg 120 46 listen 12345;
#X obj 120 21 loadbang;
#X obj 40 92 oscparse;
#X obj 118 98 unpack s f f f f f f f f;
#X obj 137 207 ingest;
#X obj 157 188 ingest;
#X obj 179 166 ingest;
#X obj 200 143 ingest;
#X obj 138 248 +~;
#X obj 181 248 +~;
#X obj 152 285 +~;
#X obj 139 315 /~ 4;
#X connect 0 0 3 0;
#X connect 0 0 4 0;
#X connect 1 0 0 0;
#X connect 2 0 1 0;
#X connect 4 1 5 0;
#X connect 4 2 6 0;
#X connect 4 3 7 0;
#X connect 4 4 8 0;
#X connect 5 0 9 0;
#X connect 6 0 9 1;
#X connect 7 0 10 0;
#X connect 8 0 10 1;
#X connect 9 0 11 0;
#X connect 10 0 11 1;
#X connect 11 0 12 0;
