#N canvas 67 87 1218 1144 12;
#X declare -path FluidCorpusManipulation -lib fluid_libmanipulation;
#X listbox -126 -6 8 0 0 0 - - - 0;
#X listbox 94 50 76 0 0 0 - - - 0;
#X obj 203 133 tgl 19 0 empty empty empty 0 -10 0 12 #fcfcfc #000000 #000000 0 1;
#X obj 401 240 bng 19 250 50 0 empty empty empty 0 -10 0 12 #fcfcfc #000000 #000000;
#X obj 204 221 metro 500;
#X obj 199 -2 array set state;
#X obj 425 240 array get state;
#X obj 424 210 bng 19 250 50 0 empty empty empty 0 -10 0 12 #fcfcfc #000000 #000000;
#X text 314 28 number is total from list;
#X obj 106 -1 list length;
#X floatatom 106 27 5 0 0 0 - - - 0;
#N canvas 517 306 261 491 fauxCrapData 0;
#X obj 23 48 phasor~ 15;
#X obj 23 296 sigmund~;
#X floatatom 76 324 5 0 0 0 - - - 0;
#X floatatom 90 21 5 0 0 0 - - - 0;
#X floatatom 23 323 5 0 0 0 - - - 0;
#X obj 23 381 analy;
#X obj 23 411 list append;
#X obj 76 380 analy;
#X obj 23 447 outlet;
#X obj 41 77 noise~;
#X obj 41 106 lop~ 250;
#X obj 23 268 *~;
#X obj 42 241 osc~ 23;
#X obj 23 165 +~;
#X obj 41 137 *~ 0.5;
#X obj 100 137 *~ 0.35;
#X obj 24 207 *~;
#X obj 137 40 inlet~;
#X connect 0 0 13 0;
#X connect 1 0 4 0;
#X connect 1 1 2 0;
#X connect 3 0 0 1;
#X connect 5 0 6 0;
#X connect 6 0 8 0;
#X connect 7 0 6 1;
#X connect 9 0 10 0;
#X connect 10 0 14 0;
#X connect 10 0 15 0;
#X connect 11 0 1 0;
#X connect 12 0 11 1;
#X connect 13 0 16 0;
#X connect 13 0 7 1;
#X connect 14 0 13 1;
#X connect 15 0 16 1;
#X connect 16 0 11 0;
#X connect 17 0 5 1;
#X restore -127 -35 pd fauxCrapData;
#X obj -126 23 list length;
#X floatatom -126 51 5 0 0 0 - - - 0;
#X obj 9 613 fluid.dataset eeg.mfcc;
#X obj 224 510 bng 15 250 50 0 empty empty empty 17 7 0 10 #fcfcfc #000000 #000000;
#X text 244 477 store dataset into a text object;
#X obj 223 414 fluid.pca -numdimensions 2 -whiten 1, f 19;
#X msg 526 408 transform pc.data pc.dist;
#X msg 536 431 getmeans pc.means;
#X obj 224 541 fluid.ds2text pc.data pc.data.text, f 35;
#X obj 564 -82 declare -path FluidCorpusManipulation -lib fluid_libmanipulation, f 64;
#N canvas 63 108 450 300 counter 0;
#X obj 117 42 inlet;
#X obj 117 133 f;
#X obj 157 133 + 1;
#X obj 117 196 outlet;
#X obj 237 42 inlet;
#X obj 218 105 >;
#X obj 218 156 spigot;
#X obj 219 130 t b;
#X msg 218 186 0;
#X obj 268 203 outlet;
#X connect 0 0 1 0;
#X connect 1 0 2 0;
#X connect 1 0 3 0;
#X connect 1 0 5 0;
#X connect 2 0 1 1;
#X connect 4 0 5 1;
#X connect 5 0 7 0;
#X connect 5 0 6 1;
#X connect 5 0 9 0;
#X connect 6 0 8 0;
#X connect 7 0 6 0;
#X connect 8 0 1 0;
#X restore 9 458 pd counter;
#X obj 9 381 loadbang;
#X floatatom 9 429 5 0 0 0 - - - 0;
#X floatatom 9 485 5 0 0 0 - - - 0;
#X msg 9 551 setpoint \$1 state;
#X msg 223 380 fittransform eeg.mfcc pc.data;
#X obj 371 414 fluid.dataset pc.data, f 13;
#X obj 294 515 text define pc.data.text;
#X obj 203 712 fluid.normalize;
#X msg 203 654 fittransform pc.data pc.norm;
#X msg 203 896 fit pc.norm;
#X obj 203 934 fluid.kdtree pc.tree;
#X obj 252 679 fluid.dataset pc.norm;
#X obj 184 1200 fluid.plotter 300 300 1 0 empty empty;
#X obj 184 1068 fluid.ds2text pc.norm pc.norm.text, f 14;
#X obj 195 1129 text define pc.norm.text;
#X f 13;
#X msg 184 1174 setpoints pc.norm.text;
#X msg 20 583 clear;
#X obj 514 524 route fitpredict;
#X obj 514 553 t b b, f 6;
#X msg 514 381 fitpredict pc.data pc.labels;
#X obj 553 591 fluid.labelset pc.labels, f 14;
#X obj 522 649 text define pc.labels.text;
#X msg 515 712 setlabels pc.labels.text, f 25;
#X obj 515 675 fluid.ls2text pc.labels pc.labels.text, f 27;
#X obj 183 267 t b b b b;
#X text 215 630 2b] Normalize for plotting;
#X text 9 355 1] create dataset;
#X text 233 353 2a] Reduce to 2D;
#X text 513 353 3] Build clusters;
#X text 41 267 fires right to left;
#X listbox 561 808 15 0 0 0 - - - 0;
#X listbox 218 824 32 0 0 0 - - - 0;
#X obj 218 794 text get pc.norm.text;
#X obj 537 782 text get pc.labels.text;
#X obj 218 763 - 1;
#X obj 537 834 list split 1, f 15;
#X obj 590 865 f;
#X floatatom 590 895 5 0 0 0 - - - 0;
#X obj 537 881 bng 19 250 50 0 empty empty empty 0 -10 0 12 #fcfcfc #000000 #000000;
#N canvas 121 166 450 435 queue 0;
#X msg 45 81 0 0 0 0 0;
#X obj 45 48 loadbang;
#X obj 24 114 list store;
#X obj 25 183 list split 1;
#X listbox 65 220 51 0 0 0 - - - 0;
#X obj 24 146 list append;
#X obj 65 258 list split 5;
#X listbox 65 293 20 0 0 0 - - - 0;
#X obj 24 14 inlet;
#X obj 64 331 outlet;
#X text 179 37 currently 5 value queue adjust loadbang message and split below, f 18;
#X obj 102 14 inlet;
#X connect 0 0 2 0;
#X connect 1 0 0 0;
#X connect 2 0 5 0;
#X connect 3 1 4 0;
#X connect 4 0 6 0;
#X connect 5 0 3 0;
#X connect 6 0 7 0;
#X connect 7 0 2 1;
#X connect 7 0 9 0;
#X connect 8 0 2 0;
#X connect 11 0 5 1;
#X restore 537 933 pd queue;
#X listbox 549 962 7 0 0 0 - - - 0;
#X obj 514 485 fluid.kmeans -numclusters 10;
#X msg 9 405 500;
#X obj -127 -65 adc~;
#X obj 537 1136 netsend -u -b;
#X obj 537 1027 oscformat /cluster;
#X msg 537 994 \$1;
#X msg 553 1103 connect 127.0.0.1 56001;
#X obj 553 1075 loadbang;
#X obj 750 396 loadbang;
#X msg 750 422 10;
#X msg 750 454 numclusters \$1;
#X text 814 423 Set Intended Cluster count here;
#X text -144 -90 leftover from testing;
#X obj 157 27 array define state 48;
#X obj 166 138 bng 19 250 50 0 empty empty empty 0 -10 0 12 #fcfcfc #000000 #000000;
#N canvas 0 22 450 278 (subpatch) 0;
#X array array2 256 float 1;
#A 0 0 0 0 0 0 0 0 0 0 0 0 0 0 0 0 0 0 0 0 0 0 0 0 0 0 0 0 0 0 0 0 0 0 0 0 0 0 0 0 0 0 0 0 0 0 0 0 0 0 0 0 0 0 0 0 0 0 0 0 0 0 0 0 0 0 0 0 0 0 0 0 0 0 0 0 0 0 0 0 0 0 0 0 0 0 0 0 0 0 0 0 0 0 0 0 0 0 0 0 0 0 0 0 0 0 0 0 0 0 0 0 0 0 0 0 0 0 0 0 0 0 0 0 0 0 0 0 0 0 0 0 0 0 0 0 0 0 0 0 0 0 0 0 0 0 0 0 0 0 0 0 0 0 0 0 0 0 0 0 0 0 0 0 0 0 0 0 0 0 0 0 0 0 0 0 0 0 0 0 0 0 0 0 0 0 0 0 0 0 0 0 0 0 0 0 0 0 0 0 0 0 0 0 0 0 0 0 0 0 0 0 0 0 0 0 0 0 0 0 0 0 0 0 0 0 0 0 0 0 0 0 0 0 0 0 0 0 0 0 0 0 0 0 0 0 0 0 0 0 0 0 0 0 0 0 0;
#A color 0;
#A width 1;
#X coords 0 1 255 -1 200 80 1;
#X restore 794 121 graph;
#X obj 879 42 bng 19 250 50 0 empty empty empty 0 -10 0 12 #fcfcfc #000000 #000000;
#X obj 877 93 tabwrite~ array2;
#X obj 147 104 threshold~ 0.15 50 0.05 250;
#X obj 147 74 fluid.onsetslice~ -metric 2 -threshold 0.002 -fftsettings 4096, f 70;
#X obj 148 221 spigot;
#X obj 187 190 != 1;
#X obj 187 171 loadbang;
#X text 812 41 Preview summed signals, f 8;
#X listbox 424 264 82 0 0 0 - - - 0;
#X text -167 405 Set maximum number of points to map \, too high can lead to choking the processor and/or memory. A lower number can also allow for to renormalize over long time frames. 500 seems a good compromise in my experience., f 19;
#X text -28 405 --->;
#X text 204 956 also fitting a fluid.kdtree~ for looking up later?, f 18;
#X text 774 1104 Set Outport for OSC here \, this will send the cluster number of the latest data point., f 30;
#X text 739 1102 <---;
#X text 779 423 <---;
#X text 229 131 <---;
#X text 262 131 Active: Regular samples by time based on metro below (in ms) Inactive: Based on threshold from onsetslice~ above \, set too low and sampling will be too frequent \, too high and the samples can be two infrequent., f 61;
#X text 361 -52 This file ingests the 8 signals from a bci core 8 as delivered by OSC over port 5600 (edit in "ingest.pd") \, sends them through frequency analysis (see/edit in "analy.pd") \, samples points based on variation \, or at set rate \, and reduces them to a set number (10) or clusters based on similarity of signal characteristics. The latest cluster is sent out via OSC., f 93;
#X text 835 -111 Requires flucoma external;
#X obj 878 65 metro 50;
#X text 494 1201 Current points plot with coloring for clusters. If there's only 2 colors click the numclusters message upper right \, sometimes it doesn't register when the patch opens., f 29;
#X obj 94 -35 ingest-8;
#X text 93 -88 Default 8-signal \, use [ingest-4] for headband & adjust [array define state 24], f 31;
#X connect 0 0 12 0;
#X connect 2 0 4 0;
#X connect 2 0 85 0;
#X connect 4 0 3 0;
#X connect 4 0 6 0;
#X connect 4 0 47 0;
#X connect 6 0 88 0;
#X connect 7 0 6 0;
#X connect 9 0 10 0;
#X connect 11 0 0 0;
#X connect 12 0 13 0;
#X connect 15 0 20 0;
#X connect 17 0 15 0;
#X connect 18 0 64 0;
#X connect 19 0 64 0;
#X connect 22 0 25 0;
#X connect 23 0 65 0;
#X connect 24 0 22 1;
#X connect 25 0 57 0;
#X connect 25 0 26 0;
#X connect 26 0 14 0;
#X connect 27 0 17 0;
#X connect 30 0 32 0;
#X connect 31 0 30 0;
#X connect 32 0 33 0;
#X connect 36 0 38 0;
#X connect 38 0 35 0;
#X connect 39 0 14 0;
#X connect 40 0 41 0;
#X connect 41 0 46 0;
#X connect 41 1 43 0;
#X connect 42 0 64 0;
#X connect 45 0 35 1;
#X connect 46 0 45 0;
#X connect 47 0 36 0;
#X connect 47 0 42 0;
#X connect 47 1 31 0;
#X connect 47 2 27 0;
#X connect 47 3 22 0;
#X connect 55 0 54 0;
#X connect 56 0 53 0;
#X connect 56 0 58 0;
#X connect 57 0 55 0;
#X connect 57 0 56 0;
#X connect 58 0 61 0;
#X connect 58 1 59 0;
#X connect 59 0 60 0;
#X connect 60 0 62 1;
#X connect 61 0 62 0;
#X connect 62 0 63 0;
#X connect 62 0 69 0;
#X connect 64 0 40 0;
#X connect 65 0 24 0;
#X connect 66 0 11 0;
#X connect 68 0 67 0;
#X connect 69 0 68 0;
#X connect 70 0 67 0;
#X connect 71 0 70 0;
#X connect 72 0 73 0;
#X connect 73 0 74 0;
#X connect 74 0 64 0;
#X connect 80 0 99 0;
#X connect 82 0 78 0;
#X connect 82 0 84 0;
#X connect 83 0 81 0;
#X connect 83 0 82 0;
#X connect 84 0 47 0;
#X connect 85 0 84 1;
#X connect 86 0 85 0;
#X connect 99 0 81 0;
#X connect 101 0 1 0;
#X connect 101 0 9 0;
#X connect 101 0 5 0;
#X connect 101 1 83 0;
#X coords 0 0 1 1 85 60 0;
