#N canvas 852 277 617 391 12;
#X msg 154 31 listen 54321;
#X obj 154 56 netreceive -u -b;
#X obj 154 79 oscparse;
#X obj 153 1 loadbang;
#X obj 154 103 list trim;
#X obj 103 144 print;
#X obj 154 186 analy;
#X obj 208 186 analy;
#X obj 262 186 analy;
#X obj 317 186 analy;
#N canvas 208 253 358 209 appendr 0;
#X obj 63 70 list append;
#X obj 63 19 inlet;
#X obj 137 19 inlet;
#X obj 198 69 list append;
#X obj 198 18 inlet;
#X obj 272 18 inlet;
#X obj 105 115 list append;
#X obj 105 150 outlet;
#X connect 0 0 6 0;
#X connect 1 0 0 0;
#X connect 2 0 0 1;
#X connect 3 0 6 1;
#X connect 4 0 3 0;
#X connect 5 0 3 1;
#X connect 6 0 7 0;
#X restore 153 263 pd appendr;
#X f 24;
#X obj 153 327 outlet;
#X text 202 328 freqs;
#X obj 186 299 outlet~;
#X text 246 300 sig Avg;
#X obj 154 143 unpack 0 0 0 0, f 24;
#X obj 186 224 expr~ ($v1 + $v2 + $v3 + $v4)/4;
#X connect 0 0 1 0;
#X connect 1 0 2 0;
#X connect 2 0 4 0;
#X connect 3 0 0 0;
#X connect 4 0 15 0;
#X connect 6 0 10 0;
#X connect 6 1 16 0;
#X connect 7 0 10 1;
#X connect 7 1 16 1;
#X connect 8 0 10 2;
#X connect 8 1 16 2;
#X connect 9 0 10 3;
#X connect 9 1 16 3;
#X connect 10 0 11 0;
#X connect 15 0 6 0;
#X connect 15 1 7 0;
#X connect 15 2 8 0;
#X connect 15 3 9 0;
#X connect 16 0 13 0;
