#N canvas 875 156 1010 1064 12;
#X declare -path FluidCorpusManipulation -lib fluid_libmanipulation;
#X listbox 202 -119 92 0 0 0 - - - 0;
#X obj 163 25 ingest;
#X listbox 163 100 112 0 0 0 - - - 0;
#X obj 202 142 fluid.onsetslice~ -metric 2 -threshold 1e-06 -fftsettings 4096, f 70;
#X text 240 171 metro is to fill in with regular brain samples until threshhold based sample on state change;
#X obj 203 183 tgl 19 0 empty empty empty 0 -10 0 12 #fcfcfc #000000 #000000 0 1;
#X obj 183 221 bng 19 250 50 0 empty empty empty 0 -10 0 12 #fcfcfc #000000 #000000;
#X obj 204 221 metro 500;
#X obj 152 -36 array set state;
#X obj 425 240 array get state;
#X obj 424 210 bng 19 250 50 0 empty empty empty 0 -10 0 12 #fcfcfc #000000 #000000;
#X listbox 424 266 58 0 0 0 - - - 0;
#X obj 253 -62 array define state 12;
#X text 408 -61 number is total from list;
#X obj 178 49 list length;
#X floatatom 178 77 5 0 0 0 - - - 0;
#N canvas 517 306 261 491 fauxCrapData 0;
#X obj 23 48 phasor~ 15;
#X obj 23 296 sigmund~;
#X floatatom 76 324 5 0 0 0 - - - 0;
#X floatatom 90 21 5 0 0 0 - - - 0;
#X floatatom 23 323 5 0 0 0 - - - 0;
#X obj 23 381 analy;
#X obj 23 411 list append;
#X obj 76 380 analy;
#X obj 23 447 outlet;
#X obj 41 77 noise~;
#X obj 41 106 lop~ 250;
#X obj 23 268 *~;
#X obj 42 241 osc~ 23;
#X obj 23 165 +~;
#X obj 41 137 *~ 0.5;
#X obj 100 137 *~ 0.35;
#X obj 24 207 *~;
#X obj 137 40 inlet~;
#X connect 0 0 13 0;
#X connect 1 0 4 0;
#X connect 1 1 2 0;
#X connect 3 0 0 1;
#X connect 5 0 6 0;
#X connect 6 0 8 0;
#X connect 7 0 6 1;
#X connect 9 0 10 0;
#X connect 10 0 14 0;
#X connect 10 0 15 0;
#X connect 11 0 1 0;
#X connect 12 0 11 1;
#X connect 13 0 7 1;
#X connect 13 0 16 0;
#X connect 14 0 13 1;
#X connect 15 0 16 1;
#X connect 16 0 11 0;
#X connect 17 0 5 1;
#X restore 201 -148 pd fauxCrapData;
#X obj 202 -90 list length;
#X floatatom 202 -62 5 0 0 0 - - - 0;
#X obj 9 613 fluid.dataset eeg.mfcc;
#X obj 224 510 bng 15 250 50 0 empty empty empty 17 7 0 10 #fcfcfc #000000 #000000;
#X text 244 477 store dataset into a text object;
#X obj 223 414 fluid.pca -numdimensions 2 -whiten 1, f 19;
#X msg 526 408 transform pc.data pc.dist;
#X msg 536 431 getmeans pc.means;
#X obj 224 541 fluid.ds2text pc.data pc.data.text, f 35;
#X obj 488 28 declare -path FluidCorpusManipulation -lib fluid_libmanipulation, f 64;
#N canvas 63 108 450 300 counter 0;
#X obj 117 42 inlet;
#X obj 117 133 f;
#X obj 157 133 + 1;
#X obj 117 196 outlet;
#X obj 237 42 inlet;
#X obj 218 105 >;
#X obj 218 156 spigot;
#X obj 219 130 t b;
#X msg 218 186 0;
#X obj 268 203 outlet;
#X connect 0 0 1 0;
#X connect 1 0 2 0;
#X connect 1 0 3 0;
#X connect 1 0 5 0;
#X connect 2 0 1 1;
#X connect 4 0 5 1;
#X connect 5 0 7 0;
#X connect 5 0 6 1;
#X connect 5 0 9 0;
#X connect 6 0 8 0;
#X connect 7 0 6 0;
#X connect 8 0 1 0;
#X restore 9 458 pd counter;
#X obj 9 381 loadbang;
#X floatatom 9 429 5 0 0 0 - - - 0;
#X floatatom 9 485 5 0 0 0 - - - 0;
#X msg 9 551 setpoint \$1 state;
#X msg 223 380 fittransform eeg.mfcc pc.data;
#X obj 371 414 fluid.dataset pc.data, f 13;
#X obj 294 515 text define pc.data.text;
#X obj 203 712 fluid.normalize;
#X msg 203 654 fittransform pc.data pc.norm;
#X msg 203 896 fit pc.norm;
#X obj 203 934 fluid.kdtree pc.tree;
#X obj 252 679 fluid.dataset pc.norm;
#X obj 184 1200 fluid.plotter 300 300 1 0 empty empty;
#X obj 184 1068 fluid.ds2text pc.norm pc.norm.text, f 14;
#X obj 195 1129 text define pc.norm.text;
#X f 13;
#X msg 184 1174 setpoints pc.norm.text;
#X msg 20 583 clear;
#X obj 514 524 route fitpredict;
#X obj 514 553 t b b, f 6;
#X msg 514 381 fitpredict pc.data pc.labels;
#X obj 553 583 fluid.labelset pc.labels, f 22;
#X obj 522 649 text define pc.labels.text;
#X msg 515 712 setlabels pc.labels.text, f 25;
#X obj 515 675 fluid.ls2text pc.labels pc.labels.text, f 27;
#X obj 183 267 t b b b b;
#X text 215 630 2b] Normalize for plotting;
#X text 9 355 1] create dataset;
#X text 233 353 2a] Reduce to 2D;
#X text 204 956 also fit a fluid.kdtree~ for looking up later?, f 24;
#X text 513 353 3] Build clusters;
#X text 254 267 fires right to left;
#X listbox 559 820 15 0 0 0 - - - 0;
#X listbox 218 824 32 0 0 0 - - - 0;
#X obj 218 794 text get pc.norm.text;
#X obj 535 794 text get pc.labels.text;
#X obj 218 763 - 1;
#X obj 535 846 list split 1, f 16;
#X obj 589 877 f;
#X floatatom 589 907 5 0 0 0 - - - 0;
#X obj 536 893 bng 19 250 50 0 empty empty empty 0 -10 0 12 #fcfcfc #000000 #000000;
#N canvas 121 166 450 435 queue 0;
#X msg 45 81 0 0 0 0 0;
#X obj 45 48 loadbang;
#X obj 24 114 list store;
#X obj 25 183 list split 1;
#X listbox 65 220 51 0 0 0 - - - 0;
#X obj 24 146 list append;
#X obj 65 258 list split 5;
#X listbox 65 293 20 0 0 0 - - - 0;
#X obj 24 14 inlet;
#X obj 64 331 outlet;
#X text 179 37 currently 5 value queue adjust loadbang message and split below, f 18;
#X obj 102 14 inlet;
#X connect 0 0 2 0;
#X connect 1 0 0 0;
#X connect 2 0 5 0;
#X connect 3 1 4 0;
#X connect 4 0 6 0;
#X connect 5 0 3 0;
#X connect 6 0 7 0;
#X connect 7 0 2 1;
#X connect 7 0 9 0;
#X connect 8 0 2 0;
#X connect 11 0 5 1;
#X restore 536 945 pd queue;
#X listbox 536 978 20 0 0 0 - - - 0;
#X obj 514 485 fluid.kmeans -numclusters 10;
#X msg 9 405 500;
#X obj 71 177 threshold~ 0.5;
#X obj 201 -178 adc~;
#X connect 0 0 8 0;
#X connect 0 0 17 0;
#X connect 1 0 2 0;
#X connect 1 0 14 0;
#X connect 1 1 3 0;
#X connect 5 0 7 0;
#X connect 7 0 6 0;
#X connect 7 0 9 0;
#X connect 7 0 52 0;
#X connect 9 0 11 0;
#X connect 10 0 9 0;
#X connect 14 0 15 0;
#X connect 16 0 0 0;
#X connect 17 0 18 0;
#X connect 20 0 25 0;
#X connect 22 0 20 0;
#X connect 23 0 70 0;
#X connect 24 0 70 0;
#X connect 27 0 30 0;
#X connect 28 0 71 0;
#X connect 29 0 27 1;
#X connect 30 0 63 0;
#X connect 30 0 31 0;
#X connect 31 0 19 0;
#X connect 32 0 22 0;
#X connect 35 0 37 0;
#X connect 36 0 35 0;
#X connect 37 0 38 0;
#X connect 41 0 43 0;
#X connect 43 0 40 0;
#X connect 44 0 19 0;
#X connect 45 0 46 0;
#X connect 46 0 51 0;
#X connect 46 1 48 0;
#X connect 47 0 70 0;
#X connect 50 0 40 1;
#X connect 51 0 50 0;
#X connect 52 0 41 0;
#X connect 52 0 47 0;
#X connect 52 1 36 0;
#X connect 52 2 32 0;
#X connect 52 3 27 0;
#X connect 61 0 60 0;
#X connect 62 0 59 0;
#X connect 62 0 64 0;
#X connect 63 0 61 0;
#X connect 63 0 62 0;
#X connect 64 0 67 0;
#X connect 64 1 65 0;
#X connect 65 0 66 0;
#X connect 66 0 68 1;
#X connect 67 0 68 0;
#X connect 68 0 69 0;
#X connect 70 0 45 0;
#X connect 71 0 29 0;
#X connect 73 0 16 0;
