#N canvas 237 282 617 391 12;
#X msg 154 31 listen 54321;
#X obj 154 56 netreceive -u -b;
#X obj 154 79 oscparse;
#X obj 153 1 loadbang;
#X obj 154 103 list trim;
#X obj 90 123 print;
#X obj 6 150 unpack 0;
#X obj 6 124 route stop;
#X obj 154 143 unpack 0 0 0 0 0 0 0 0, f 55;
#X obj 186 224 expr~ ($v1 + $v2 + $v3 + $v4 + $v5 + $v6 + $v7 + $v8)/8;
#X obj 154 186 analy;
#X obj 208 186 analy;
#X obj 262 186 analy;
#X obj 317 186 analy;
#X obj 372 185 analy;
#X obj 426 185 analy;
#X obj 481 184 analy;
#X obj 535 183 analy;
#N canvas 208 253 664 242 appendr 0;
#X obj 63 70 list append;
#X obj 63 19 inlet;
#X obj 137 19 inlet;
#X obj 198 69 list append;
#X obj 198 18 inlet;
#X obj 272 18 inlet;
#X obj 334 69 list append;
#X obj 334 18 inlet;
#X obj 408 18 inlet;
#X obj 469 68 list append;
#X obj 469 17 inlet;
#X obj 543 17 inlet;
#X obj 199 108 list append;
#X obj 334 109 list append;
#X obj 260 146 list append;
#X obj 260 183 outlet;
#X connect 0 0 12 0;
#X connect 1 0 0 0;
#X connect 2 0 0 1;
#X connect 3 0 12 1;
#X connect 4 0 3 0;
#X connect 5 0 3 1;
#X connect 6 0 13 0;
#X connect 7 0 6 0;
#X connect 8 0 6 1;
#X connect 9 0 13 1;
#X connect 10 0 9 0;
#X connect 11 0 9 1;
#X connect 12 0 14 0;
#X connect 13 0 14 1;
#X connect 14 0 15 0;
#X restore 153 263 pd appendr;
#X f 55;
#X obj 153 327 outlet;
#X text 202 328 freqs;
#X obj 186 299 outlet~;
#X text 246 300 sig Avg;
#X connect 0 0 1 0;
#X connect 1 0 2 0;
#X connect 2 0 4 0;
#X connect 3 0 0 0;
#X connect 4 0 5 0;
#X connect 4 0 7 0;
#X connect 4 0 8 0;
#X connect 7 0 6 0;
#X connect 8 0 10 0;
#X connect 8 1 11 0;
#X connect 8 2 12 0;
#X connect 8 3 13 0;
#X connect 8 4 14 0;
#X connect 8 5 15 0;
#X connect 8 6 16 0;
#X connect 8 7 17 0;
#X connect 9 0 21 0;
#X connect 10 0 18 0;
#X connect 10 1 9 0;
#X connect 11 0 18 1;
#X connect 11 1 9 1;
#X connect 12 0 18 2;
#X connect 12 1 9 2;
#X connect 13 0 18 3;
#X connect 13 1 9 3;
#X connect 14 0 18 4;
#X connect 14 1 9 4;
#X connect 15 0 18 5;
#X connect 15 1 9 5;
#X connect 16 0 18 6;
#X connect 16 1 9 6;
#X connect 17 0 18 7;
#X connect 17 1 9 7;
#X connect 18 0 19 0;
